<?xml version="1.0" standalone="no"?>
<!DOCTYPE svg PUBLIC "-//W3C//DTD SVG 20010904//EN"
 "http://www.w3.org/TR/2001/REC-SVG-20010904/DTD/svg10.dtd">
<svg version="1.0" xmlns="http://www.w3.org/2000/svg"
 width="700.000000pt" height="700.000000pt" viewBox="0 0 700.000000 700.000000"
 preserveAspectRatio="xMidYMid meet">
<metadata>
Created by potrace 1.14, written by Peter Selinger 2001-2017
</metadata>
<g transform="translate(0.000000,700.000000) scale(0.100000,-0.100000)"
fill="#000000" stroke="none">
<path d="M4625 6533 c-285 -18 -541 -102 -674 -220 -66 -58 -125 -146 -148
-222 -13 -43 -33 -73 -86 -130 -37 -41 -102 -114 -143 -163 -41 -49 -76 -83
-78 -76 -42 158 -97 284 -171 400 -55 84 -173 238 -183 238 -13 0 -127 -186
-188 -307 -70 -139 -137 -332 -155 -445 -16 -108 -7 -266 20 -348 29 -84 80
-162 149 -227 l55 -53 -55 -117 c-47 -101 -104 -237 -160 -387 l-15 -39 -48
73 c-126 189 -370 379 -653 506 -88 40 -97 42 -106 26 -16 -28 -20 -447 -6
-575 50 -463 254 -763 570 -842 l65 -16 0 -249 0 -248 -40 30 c-248 187 -607
319 -988 364 -69 8 -67 16 -31 -145 169 -752 509 -1237 939 -1336 77 -18 269
-21 339 -5 27 6 49 9 50 8 1 -2 15 -32 30 -68 106 -246 308 -579 514 -850 145
-189 641 -746 652 -733 4 5 37 51 73 104 l67 97 -110 143 c-103 134 -306 408
-323 436 -5 7 19 47 59 100 79 103 153 253 185 373 19 71 23 111 23 240 0 135
-3 169 -26 261 -32 125 -72 229 -140 362 -46 89 -162 274 -191 304 -9 10 -23
-1 -59 -46 -166 -208 -328 -492 -402 -706 -6 -16 -15 -3 -43 60 -76 172 -163
428 -150 441 3 4 40 21 81 39 168 73 343 212 442 351 177 247 243 621 179
1014 -25 158 -12 147 -107 99 -224 -113 -475 -288 -624 -435 -82 -81 -85 -83
-80 -52 3 18 8 62 11 98 13 150 71 430 116 567 l20 62 117 -6 c455 -22 818
202 1046 647 57 112 146 332 146 361 0 17 -319 5 -470 -16 -113 -16 -269 -50
-363 -79 l-48 -14 17 26 c97 153 322 441 403 517 l32 30 132 1 c154 2 247 23
372 83 199 96 358 268 490 529 30 60 56 120 57 133 3 23 0 24 -82 31 -87 6
-216 7 -305 1z m-220 -369 c-76 -55 -143 -83 -235 -99 l-35 -6 30 26 c41 36
97 64 180 91 103 34 119 31 60 -12z m-1212 -609 c2 -81 -2 -114 -22 -172 -13
-40 -27 -73 -31 -73 -7 0 -23 52 -35 117 -8 41 11 168 38 253 l20 65 15 -45
c7 -25 15 -90 15 -145z m681 -632 c-95 -129 -183 -207 -297 -265 -72 -36 -193
-68 -258 -68 l-48 0 11 33 c49 143 239 259 528 321 95 21 96 21 64 -21z
m-1441 -519 c101 -120 157 -262 157 -401 l0 -73 -38 19 c-93 47 -179 183 -220
346 -18 72 -42 205 -42 236 0 19 80 -52 143 -127z m1013 -896 c-28 -256 -143
-453 -341 -583 -81 -53 -83 -52 -84 60 -1 125 51 231 182 371 66 70 231 214
245 214 3 0 2 -28 -2 -62z m-1261 -488 c205 -101 356 -243 444 -419 40 -79 74
-176 86 -248 l7 -43 -54 1 c-230 2 -430 172 -596 504 -41 84 -122 281 -122
299 0 11 117 -36 235 -94z m1532 -950 c21 -83 24 -111 20 -220 -4 -139 -27
-225 -87 -323 -60 -99 -57 -97 -90 -58 -106 126 -87 359 53 655 l51 109 14
-34 c8 -19 25 -77 39 -129z"/>
</g>
</svg>
